<svg width="135" height="29" viewBox="0 0 135 29" fill="none" xmlns="http://www.w3.org/2000/svg">
<g clip-path="url(#clip0_1559_1507)">
<path d="M21.0732 3.03363C21.368 2.53206 21.0063 1.9 20.4245 1.9H15.1107C14.5773 1.9 14.0837 2.18241 13.8134 2.6423L0.10488 25.9664C-0.189913 26.4679 0.171743 27.1 0.753528 27.1H6.06729C6.60072 27.1 7.09429 26.8176 7.36458 26.3577L21.0732 3.03363Z" fill="#312E81"/>
<path fill-rule="evenodd" clip-rule="evenodd" d="M18.3947 17.4035C18.3944 17.3895 18.3944 17.3755 18.3944 17.3615C18.3944 17.3475 18.3944 17.3335 18.3947 17.3195C18.4173 15.5214 19.882 14.0703 21.6854 14.0703C23.489 14.0703 24.9537 15.521 24.9764 17.3191L24.9768 25.5594C24.9769 26.3905 24.3032 27.0643 23.4721 27.0643H19.8994C19.0684 27.0643 18.3947 26.3906 18.3947 25.5595V17.4035Z" fill="#312E81"/>
<path d="M47.5343 27.4798C45.7738 27.4798 44.1958 27.1808 42.8007 26.5828C41.4388 25.985 40.3426 25.1047 39.5123 23.9422C38.715 22.7795 38.3164 21.3677 38.3164 19.7069C38.3164 18.0127 38.715 16.6176 39.5123 15.5214C40.3426 14.392 41.4555 13.545 42.8506 12.9803C44.279 12.4156 45.89 12.1332 47.6838 12.1332H55.1577V10.5388C55.1577 9.11045 54.7258 7.96444 53.8623 7.10079C52.9986 6.23713 51.6699 5.8053 49.8761 5.8053C48.1156 5.8053 46.7703 6.22053 45.8401 7.05097C44.9101 7.8814 44.2955 8.96097 43.9966 10.2897L39.2132 8.74506C39.6118 7.41635 40.2431 6.22053 41.1066 5.15756C42.0036 4.06138 43.1828 3.18111 44.6444 2.51676C46.1059 1.85241 47.8665 1.52023 49.9259 1.52023C53.1148 1.52023 55.6228 2.33406 57.4496 3.96173C59.2766 5.58939 60.1901 7.89801 60.1901 10.8876V21.0023C60.1901 21.9988 60.6552 22.4971 61.5852 22.4971H63.678V26.7822H59.8414C58.6787 26.7822 57.732 26.4833 57.0012 25.8854C56.2704 25.2874 55.9052 24.4736 55.9052 23.4439V23.2944H55.1577C54.892 23.7926 54.4934 24.3739 53.9618 25.0382C53.4304 25.7027 52.6497 26.2839 51.62 26.7822C50.5903 27.2473 49.2284 27.4798 47.5343 27.4798ZM48.2816 23.2445C50.3411 23.2445 52.002 22.6633 53.2643 21.5006C54.5266 20.3048 55.1577 18.6772 55.1577 16.6176V16.1194H47.9827C46.6208 16.1194 45.5246 16.4183 44.6941 17.0162C43.8638 17.581 43.4485 18.428 43.4485 19.5574C43.4485 20.6867 43.8803 21.5837 44.7439 22.248C45.6076 22.9123 46.7868 23.2445 48.2816 23.2445Z" fill="#312E81"/>
<path d="M77.9996 27.4798C75.6411 27.4798 73.4986 26.9816 71.572 25.985C69.6787 24.9885 68.1672 23.5434 67.0379 21.6501C65.9417 19.7567 65.3936 17.4813 65.3936 14.8238V14.1761C65.3936 11.5187 65.9417 9.25993 67.0379 7.39975C68.1672 5.50635 69.6787 4.06138 71.572 3.06486C73.4986 2.0351 75.6411 1.52023 77.9996 1.52023C80.358 1.52023 82.3677 1.95207 84.0285 2.81571C85.6895 3.67937 87.0182 4.82539 88.0148 6.25374C89.0445 7.6821 89.7088 9.25993 90.0078 10.9872L85.0251 12.0336C84.859 10.9374 84.5103 9.94089 83.9787 9.04402C83.4473 8.14714 82.6999 7.43297 81.7366 6.90149C80.7733 6.37001 79.5609 6.10426 78.0993 6.10426C76.6708 6.10426 75.3754 6.43644 74.2129 7.10079C73.0833 7.73193 72.1865 8.66202 71.5222 9.89106C70.8578 11.0869 70.5257 12.5485 70.5257 14.2758V14.7243C70.5257 16.4516 70.8578 17.9297 71.5222 19.1588C72.1865 20.3878 73.0833 21.3179 74.2129 21.949C75.3754 22.5802 76.6708 22.8958 78.0993 22.8958C80.2583 22.8958 81.9026 22.3477 83.032 21.2515C84.1614 20.1221 84.8757 18.6937 85.1746 16.9664L90.1572 18.1124C89.7586 19.8066 89.0445 21.3677 88.0148 22.7961C87.0182 24.2244 85.6895 25.3704 84.0285 26.2341C82.3677 27.0646 80.358 27.4798 77.9996 27.4798Z" fill="#312E81"/>
<path d="M94.5815 26.7822V2.2178H99.6141V5.10774H100.411C100.81 4.07798 101.441 3.33059 102.305 2.86554C103.201 2.36728 104.298 2.11815 105.593 2.11815H108.533V6.75201H105.394C103.733 6.75201 102.371 7.21705 101.308 8.14714C100.245 9.04402 99.7137 10.4391 99.7137 12.3325V26.7822H94.5815Z" fill="#312E81"/>
<path d="M122.741 27.4798C120.249 27.4798 118.074 26.9649 116.213 25.9352C114.353 24.8722 112.892 23.3941 111.829 21.5006C110.799 19.574 110.284 17.3484 110.284 14.8238V14.226C110.284 11.6682 110.799 9.44263 111.829 7.54923C112.859 5.6226 114.287 4.14443 116.114 3.11468C117.974 2.05172 120.117 1.52023 122.541 1.52023C124.9 1.52023 126.959 2.05172 128.72 3.11468C130.514 4.14443 131.909 5.58939 132.905 7.44957C133.902 9.30975 134.4 11.4855 134.4 13.9768V15.92H115.516C115.582 18.0792 116.296 19.8066 117.658 21.102C119.054 22.3642 120.781 22.9953 122.84 22.9953C124.767 22.9953 126.212 22.5636 127.175 21.6999C128.172 20.8363 128.936 19.8397 129.467 18.7104L133.703 20.9026C133.237 21.8328 132.557 22.8126 131.66 23.8425C130.796 24.8722 129.65 25.7358 128.222 26.4335C126.793 27.1309 124.966 27.4798 122.741 27.4798ZM115.566 11.9838H129.168C129.036 10.1236 128.371 8.67862 127.175 7.64888C125.979 6.58591 124.418 6.05443 122.492 6.05443C120.565 6.05443 118.987 6.58591 117.758 7.64888C116.562 8.67862 115.831 10.1236 115.566 11.9838Z" fill="#312E81"/>
</g>
<defs>
<clipPath id="clip0_1559_1507">
<rect width="134.4" height="28" fill="white" transform="translate(0 0.5)"/>
</clipPath>
</defs>
</svg>
