<svg width="198" height="72" viewBox="0 0 198 72" fill="none" xmlns="http://www.w3.org/2000/svg">
<path fill-rule="evenodd" clip-rule="evenodd" d="M162.25 5.5H35.75C19.0434 5.5 5.5 19.0434 5.5 35.75C5.5 52.4566 19.0434 66 35.75 66H162.25C178.957 66 192.5 52.4566 192.5 35.75C192.5 19.0434 178.957 5.5 162.25 5.5ZM35.75 0C16.0058 0 0 16.0058 0 35.75C0 55.4942 16.0058 71.5 35.75 71.5H162.25C181.994 71.5 198 55.4942 198 35.75C198 16.0058 181.994 0 162.25 0H35.75Z" fill="white"/>
<path d="M79.6851 48.498C77.956 48.498 76.4063 48.2043 75.0361 47.617C73.6985 47.0299 72.6219 46.1653 71.8064 45.0235C71.0233 43.8816 70.6318 42.495 70.6318 40.8638C70.6318 39.2 71.0233 37.8298 71.8064 36.7531C72.6219 35.6439 73.7149 34.812 75.085 34.2574C76.488 33.7028 78.0702 33.4254 79.832 33.4254H87.1724V31.8595C87.1724 30.4566 86.7482 29.3311 85.9001 28.4829C85.0519 27.6346 83.7469 27.2105 81.9851 27.2105C80.256 27.2105 78.9348 27.6183 78.0212 28.4339C77.1078 29.2495 76.5042 30.3098 76.2106 31.6148L71.5127 30.0978C71.9041 28.7928 72.5241 27.6183 73.3722 26.5743C74.2532 25.4977 75.4113 24.6332 76.8468 23.9807C78.2822 23.3282 80.0114 23.002 82.034 23.002C85.166 23.002 87.6292 23.8012 89.4234 25.3998C91.2178 26.9985 92.115 29.2658 92.115 32.202V42.1361C92.115 43.1149 92.5717 43.6042 93.4852 43.6042H95.5405V47.8128H91.7725C90.6305 47.8128 89.7007 47.5193 88.983 46.932C88.2652 46.3447 87.9065 45.5454 87.9065 44.5341V44.3873H87.1724C86.9114 44.8766 86.52 45.4475 85.9979 46.1C85.4759 46.7526 84.7092 47.3235 83.6979 47.8128C82.6866 48.2696 81.349 48.498 79.6851 48.498ZM80.4191 44.3383C82.4418 44.3383 84.073 43.7674 85.3129 42.6255C86.5526 41.4511 87.1724 39.8525 87.1724 37.8298V37.3404H80.1255C78.7879 37.3404 77.7113 37.634 76.8956 38.2212C76.0801 38.7759 75.6723 39.6078 75.6723 40.717C75.6723 41.8262 76.0964 42.7072 76.9446 43.3596C77.7928 44.012 78.951 44.3383 80.4191 44.3383Z" fill="white"/>
<path d="M109.607 48.498C107.291 48.498 105.187 48.0086 103.295 47.0299C101.435 46.0512 99.9507 44.6319 98.8415 42.7723C97.7649 40.9128 97.2266 38.678 97.2266 36.068V35.4318C97.2266 32.8219 97.7649 30.6034 98.8415 28.7765C99.9507 26.9169 101.435 25.4977 103.295 24.519C105.187 23.5076 107.291 23.002 109.607 23.002C111.924 23.002 113.898 23.4261 115.529 24.2743C117.16 25.1225 118.465 26.2481 119.444 27.6509C120.455 29.0538 121.108 30.6034 121.401 32.2999L116.507 33.3276C116.344 32.251 116.002 31.2722 115.48 30.3914C114.958 29.5105 114.224 28.8091 113.278 28.2871C112.332 27.7651 111.141 27.5041 109.705 27.5041C108.302 27.5041 107.03 27.8304 105.888 28.4829C104.779 29.1027 103.898 30.0162 103.246 31.2233C102.593 32.3978 102.267 33.8333 102.267 35.5297V35.9702C102.267 37.6667 102.593 39.1184 103.246 40.3255C103.898 41.5326 104.779 42.4461 105.888 43.0659C107.03 43.6859 108.302 43.9958 109.705 43.9958C111.826 43.9958 113.441 43.4575 114.55 42.3809C115.659 41.2717 116.361 39.8688 116.654 38.1723L121.548 39.2979C121.157 40.9617 120.455 42.495 119.444 43.8979C118.465 45.3007 117.16 46.4263 115.529 47.2745C113.898 48.0902 111.924 48.498 109.607 48.498Z" fill="white"/>
<path d="M125.893 47.813V23.6872H130.835V26.5256H131.618C132.01 25.5142 132.63 24.7801 133.478 24.3234C134.359 23.834 135.435 23.5894 136.708 23.5894H139.595V28.1405H136.512C134.881 28.1405 133.543 28.5972 132.499 29.5107C131.455 30.3915 130.933 31.7618 130.933 33.6214V47.813H125.893Z" fill="white"/>
<path d="M153.549 48.498C151.102 48.498 148.965 47.9923 147.138 46.9809C145.311 45.9369 143.875 44.4852 142.831 42.6255C141.82 40.7334 141.314 38.5475 141.314 36.068V35.4808C141.314 32.9687 141.82 30.7829 142.831 28.9233C143.843 27.0311 145.246 25.5793 147.04 24.5679C148.867 23.5239 150.971 23.002 153.353 23.002C155.669 23.002 157.692 23.5239 159.421 24.5679C161.183 25.5793 162.553 26.9985 163.532 28.8254C164.51 30.6524 165 32.7893 165 35.2361V37.1446H146.453C146.518 39.2653 147.219 40.9617 148.557 42.234C149.927 43.4737 151.624 44.0936 153.646 44.0936C155.539 44.0936 156.958 43.6695 157.904 42.8213C158.883 41.9731 159.633 40.9943 160.155 39.8851L164.315 42.0382C163.858 42.9518 163.189 43.9141 162.308 44.9256C161.46 45.9369 160.334 46.7851 158.932 47.4703C157.529 48.1553 155.734 48.498 153.549 48.498ZM146.502 33.2786H159.861C159.731 31.4517 159.078 30.0325 157.904 29.0212C156.729 27.9772 155.196 27.4552 153.304 27.4552C151.412 27.4552 149.862 27.9772 148.655 29.0212C147.48 30.0325 146.763 31.4517 146.502 33.2786Z" fill="white"/>
<path d="M53.6969 24.4884C53.9864 23.9958 53.6312 23.375 53.0598 23.375H47.8409C47.317 23.375 46.8322 23.6524 46.5668 24.104L33.103 47.0116C32.8135 47.5042 33.1687 48.125 33.7401 48.125H38.9589C39.4829 48.125 39.9676 47.8476 40.2331 47.396L53.6969 24.4884Z" fill="white"/>
<path fill-rule="evenodd" clip-rule="evenodd" d="M51.0662 38.6017C51.0659 38.5879 51.0659 38.5742 51.0659 38.5604C51.0659 38.5467 51.0659 38.5329 51.0662 38.5191C51.0884 36.7532 52.527 35.328 54.2982 35.328C56.0696 35.328 57.5081 36.7528 57.5304 38.5187L57.5308 46.6119C57.5309 47.4282 56.8692 48.0899 56.0529 48.0899H52.5441C51.7279 48.0899 51.0662 47.4282 51.0662 46.612V38.6017Z" fill="white"/>
</svg>
