<svg width="48" height="48" viewBox="0 0 48 48" fill="none" xmlns="http://www.w3.org/2000/svg">
<rect width="48" height="48" rx="12" fill="#E0E7FF"/>
<path d="M34.6064 25.4386C35.0175 24.7425 35.25 24 35.25 23.1023C35.25 21.0391 33.5054 19.0908 31.2272 19.0908H29.5172C29.7478 18.4903 29.932 17.7722 29.932 16.9092C29.932 13.497 28.1653 12 25.4662 12C22.5784 12 22.7431 16.45 22.1025 17.0906C21.0362 18.1569 19.7768 20.2053 18.8794 21H14.25C13.4216 21 12.75 21.6716 12.75 22.5V33.75C12.75 34.5784 13.4216 35.25 14.25 35.25H17.25C17.9481 35.25 18.5347 34.7731 18.7021 34.1273C20.7885 34.1743 22.2205 35.9995 27.0366 35.9995C27.375 35.9995 27.75 36 28.0781 36C31.693 36 33.3275 34.152 33.3722 31.5314C33.9965 30.6677 34.3237 29.5101 34.185 28.3913C34.6469 27.5263 34.8255 26.5002 34.6064 25.4386ZM31.7119 27.9619C32.3006 28.9523 31.7709 30.278 31.0584 30.6605C31.4194 32.947 30.2331 33.7495 28.5684 33.7495H26.7956C23.4375 33.7495 21.263 31.9767 18.75 31.9767V23.25H19.2619C20.5912 23.25 22.4484 19.927 23.6934 18.6816C25.0228 17.3522 24.5798 15.1364 25.4662 14.25C27.682 14.25 27.682 15.7959 27.682 16.9092C27.682 18.7453 26.3527 19.568 26.3527 21.3408H31.2272C32.2167 21.3408 32.9958 22.2272 33 23.1136C33.0042 23.9995 32.3991 24.8859 31.9561 24.8859C32.5884 25.5682 32.7235 27.0064 31.7119 27.9619ZM16.875 32.25C16.875 32.8713 16.3713 33.375 15.75 33.375C15.1287 33.375 14.625 32.8713 14.625 32.25C14.625 31.6287 15.1287 31.125 15.75 31.125C16.3713 31.125 16.875 31.6287 16.875 32.25Z" fill="#4F46E5"/>
</svg>
